<?xml version="1.0"?>
<svg version="1.1" xmlns="http://www.w3.org/2000/svg" width="400" height="200" style="border: dashed 2px #aaa"><path fill="#a3b5c2" d="M15.9921875,93.9453125q-0.0390625-0.4765625,0.0625-0.828125t0.40625-0.578125t0.9765625-0.2265625l2.515625,0q0.515625,0,1.3515625,0.0546875t1.796875,0.1640625t1.9140625,0.3359375t1.7421875,0.5625t1.28125,0.828125t0.4921875,1.1640625q0,0.953125-0.5546875,1.7890625t-1.390625,1.5078125t-1.765625,1.1953125t-1.6640625,0.9453125q2.90625,0.640625,4.546875,2.65625t1.640625,5.03125q0,1.59375-0.609375,3.1484375t-1.6640625,2.8046875t-2.5,2.015625t-3.1015625,0.765625q-0.21875,0-0.4921875-0.046875t-0.5-0.1484375t-0.390625-0.2890625t-0.1640625-0.484375q0-1.375,1.484375-1.375q0.25,0,0.5859375,0.0703125t0.5234375,0.2890625q0.859375-0.359375,1.5703125-1.140625t1.203125-1.7421875t0.765625-2.015625t0.2734375-1.9140625q0-1.03125-0.3046875-2.1015625t-0.8828125-1.984375t-1.421875-1.5390625t-1.9375-0.78125q-0.28125-0.03125-0.6171875-0.046875l-0.671875-0.03125t-0.65625-0.09375t-0.5546875-0.25q0.125,2.59375,0.3203125,5.171875t0.5234375,5.171875q0.125,0.125,0.171875,0.3671875t0.078125,0.515625t0.03125,0.5234375l0,0.421875q0,0.28125-0.1875,0.4609375t-0.4453125,0.2890625t-0.546875,0.140625t-0.5078125,0.03125q-0.703125,0-1.078125-0.1875t-0.53125-0.546875t-0.203125-0.8203125t-0.078125-1.0078125q-0.421875-4.359375-0.609375-8.625t-0.1875-8.625q0-0.515625-0.0390625-0.9921875z M18.875,93.28125q0,1.921875,0.125,3.8515625t0.21875,3.8515625q0.703125-0.421875,1.84375-0.9921875t2.2109375-1.2578125t1.8359375-1.515625t0.765625-1.796875q0-0.765625-0.90625-1.1640625t-2.109375-0.59375t-2.3515625-0.2421875t-1.6328125-0.140625z M32.46359375,97.2109375q-0.03125-0.4140625,0.0703125-0.78125t0.3828125-0.609375t0.953125-0.2421875q0.15625,0,0.3828125,0.03125t0.453125,0.1015625t0.3671875,0.1953125t0.140625,0.34375q0,0.578125,0.0390625,1.5234375t0.1015625,1.96875t0.1171875,2t0.1015625,1.5859375q1.21875-0.0625,2.453125-0.0625t2.4375-0.0625l2.15625-0.0625l0-1.546875q0-2.59375-0.1015625-5.1953125t-0.3515625-5.1953125q0-0.1875,0.15625-0.3046875t0.3671875-0.1796875t0.4375-0.078125t0.3515625-0.015625q0.359375,0,0.7734375,0.109375t0.4765625,0.46875l0.09375,0.671875q0.390625,2.8125,0.53125,5.5625t0.203125,5.5q0.1875,0.03125,0.3984375,0.1015625t0.4296875,0.1328125q0.15625,0.0625,0.4453125,0.1875t0.2890625,0.390625q0,0.25-0.21875,0.390625t-0.4921875,0.2109375t-0.53125,0.0859375t-0.3203125,0.015625q0.03125,1.15625,0.03125,2.3046875l0,2.3046875l0,5.046875l0,2.8125q0,0.1875-0.1796875,0.3359375t-0.4296875,0.2421875t-0.5234375,0.125t-0.4921875,0.03125t-0.515625-0.03125t-0.53125-0.125t-0.4140625-0.234375t-0.1796875-0.34375l0-0.671875q0.0625-2.96875,0.140625-5.8828125t0.15625-5.8515625q-1.703125,0.0625-3.4609375,0.078125t-3.4921875,0.078125q0.1875,2.203125,0.4296875,4.3984375t0.5078125,4.3984375q0,0.1875-0.1796875,0.3359375t-0.421875,0.2421875t-0.515625,0.125t-0.4921875,0.03125q-0.453125,0-0.9921875-0.15625t-0.6015625-0.578125q-0.1875-1.65625-0.3515625-3.65625t-0.2890625-4.0859375t-0.1953125-4.0859375t-0.0703125-3.625q0-0.390625-0.03125-0.8046875z M50.3178125,104.953125q0-0.921875,0.1015625-2.234375t0.375-2.734375t0.734375-2.828125t1.1796875-2.484375t1.71875-1.703125q0.828125-0.515625,1.90625-0.515625q0.21875,0,0.453125,0.03125q2.71875,0.25,4.1796875,1.2421875t2.1328125,2.515625t0.78125,3.46875t0.109375,4.1015625q0,1.734375-0.3203125,3.7734375t-1.1328125,3.8046875t-2.2421875,2.9453125t-3.6328125,1.1796875q-1.34375,0-2.3515625-0.4921875t-1.7109375-1.3125t-1.15625-1.90625t-0.6875-2.25t-0.3359375-2.3515625t-0.1015625-2.25z M53.4896875,104.25q0,0.671875,0.015625,1.6484375t0.1328125,2.0546875t0.3046875,2.1484375t0.5546875,1.9453125t0.9296875,1.4375t1.359375,0.59375l0.078125,0q0.71875,0,1.28125-0.546875q0.59375-0.578125,1.0546875-1.390625t0.796875-1.7109375t0.6015625-1.5390625l-0.0625,0.140625q0.453125-1.4375,0.609375-2.9453125t0.15625-2.9765625q0-0.703125-0.09375-1.6953125t-0.3046875-2.0703125t-0.546875-2.1328125t-0.8515625-1.8359375t-1.203125-1.1875q-0.5-0.296875-1.109375-0.3125q-0.234375,0-0.46875,0.046875q-0.796875,0.15625-1.359375,0.78125t-0.9140625,1.5390625t-0.5390625,2t-0.2890625,2.1875t-0.1171875,2.109375t-0.015625,1.7109375z M60.5365625,109.0625l0-0.03125l0,0.03125z M67.21890625,113.03125q0-0.546875,0.375-0.6953125t0.8125-0.1484375q0.765625,0,1.296875,0.6875t1.0078125,1.5078125t0.9453125,1.5078125t1.109375,0.6875q0.484375,0,0.8828125-0.2421875t0.6875-0.609375t0.4453125-0.828125t0.15625-0.9140625q0-1.1875-0.4765625-2.453125t-1.21875-2.609375t-1.5703125-2.75t-1.5625-2.859375t-1.21875-2.9609375t-0.484375-3.0390625q0-2.296875,1.375-3.5625t3.625-1.265625q0.765625,0,1.546875,0.21875t1.4375,0.65625t1.0703125,1.078125t0.4140625,1.5q0,0.28125-0.4140625,0.3671875t-0.6015625,0.0859375q-0.28125,0-0.609375-0.0703125t-0.421875-0.3828125t-0.265625-0.71875t-0.4296875-0.7578125t-0.609375-0.609375t-0.7734375-0.2578125q-0.703125,0-1.1953125,0.2890625t-0.796875,0.7734375t-0.453125,1.0859375t-0.1484375,1.2421875q0,1.5,0.515625,3.0234375t1.28125,3.03125t1.6640625,2.9765625t1.6640625,2.859375t1.28125,2.71875t0.515625,2.515625q0,1.0625-0.5,1.796875t-1.265625,1.1953125t-1.6953125,0.671875t-1.8203125,0.2109375q-0.953125,0-1.953125-0.3828125t-1.796875-1.0546875t-1.3125-1.5703125t-0.515625-1.9453125z M81.27625,113.03125q0-0.546875,0.375-0.6953125t0.8125-0.1484375q0.765625,0,1.296875,0.6875t1.0078125,1.5078125t0.9453125,1.5078125t1.109375,0.6875q0.484375,0,0.8828125-0.2421875t0.6875-0.609375t0.4453125-0.828125t0.15625-0.9140625q0-1.1875-0.4765625-2.453125t-1.21875-2.609375t-1.5703125-2.75t-1.5625-2.859375t-1.21875-2.9609375t-0.484375-3.0390625q0-2.296875,1.375-3.5625t3.625-1.265625q0.765625,0,1.546875,0.21875t1.4375,0.65625t1.0703125,1.078125t0.4140625,1.5q0,0.28125-0.4140625,0.3671875t-0.6015625,0.0859375q-0.28125,0-0.609375-0.0703125t-0.421875-0.3828125t-0.265625-0.71875t-0.4296875-0.7578125t-0.609375-0.609375t-0.7734375-0.2578125q-0.703125,0-1.1953125,0.2890625t-0.796875,0.7734375t-0.453125,1.0859375t-0.1484375,1.2421875q0,1.5,0.515625,3.0234375t1.28125,3.03125t1.6640625,2.9765625t1.6640625,2.859375t1.28125,2.71875t0.515625,2.515625q0,1.0625-0.5,1.796875t-1.265625,1.1953125t-1.6953125,0.671875t-1.8203125,0.2109375q-0.953125,0-1.953125-0.3828125t-1.796875-1.0546875t-1.3125-1.5703125t-0.515625-1.9453125z M95.33359375,111.015625q0-3.390625,0.3046875-6.7890625t1.2734375-6.6953125q0.28125-0.984375,0.734375-1.9453125t1.109375-1.7109375t1.5625-1.21875t2.15625-0.46875l0.328125,0.03125q1.34375,0.1875,1.984375,1.0859375t0.640625,2.2421875q0,0.359375-0.0859375,0.8984375t-0.2734375,1.0390625t-0.5078125,0.8515625t-0.8046875,0.3515625q-0.21875-0.03125-0.3984375-0.078125t-0.3359375-0.203125q0.25-0.546875,0.4453125-1.140625t0.1953125-1.359375q0-0.28125-0.046875-0.71875t-0.1796875-0.8671875t-0.3515625-0.75t-0.609375-0.3203125q-0.984375,0-1.65625,1.1015625t-1.125,2.8125t-0.671875,3.78125t-0.3359375,4t-0.1328125,3.484375t-0.015625,2.1953125q0,0.75-0.015625,1.65625l0,0.203125q0.015625,0.796875,0.109375,1.515625q0.125,0.8125,0.484375,1.40625t1.125,0.6875q0.234375,0.03125,0.453125,0.03125q0.90625,0,1.640625-0.515625q0.90625-0.640625,1.609375-1.6640625t1.25-2.25t1.0078125-2.3203125t0.8984375-1.8125t0.90625-0.71875q0.15625,0,0.46875,0.0625t0.3125,0.296875q0,0.0625-0.03125,0.171875t-0.078125,0.171875q-0.421875,1.65625-1.0703125,3.4375t-1.65625,3.2421875t-2.46875,2.3828125t-3.5078125,0.921875q-1.46875,0-2.3828125-0.5546875t-1.40625-1.484375t-0.671875-2.1015625t-0.1796875-2.375z"/><path fill="#" d=""/></svg>
