<?xml version="1.0"?>
<svg version="1.1" xmlns="http://www.w3.org/2000/svg" width="400" height="200" style=""><path fill="#30a185" d="M56.154296875,81.0791015625q-0.1220703125-1.4892578125,0.1953125-2.587890625t1.26953125-1.806640625t3.0517578125-0.7080078125l7.861328125,0q1.611328125,0,4.2236328125,0.1708984375t5.615234375,0.5126953125t5.9814453125,1.0498046875t5.4443359375,1.7578125t4.00390625,2.587890625t1.5380859375,3.6376953125q0,2.978515625-1.7333984375,5.5908203125t-4.345703125,4.7119140625t-5.517578125,3.7353515625t-5.2001953125,2.9541015625q9.08203125,2.001953125,14.208984375,8.30078125t5.126953125,15.72265625q0,4.98046875-1.904296875,9.8388671875t-5.2001953125,8.7646484375t-7.8125,6.298828125t-9.6923828125,2.392578125q-0.68359375,0-1.5380859375-0.146484375t-1.5625-0.4638671875t-1.220703125-0.9033203125t-0.5126953125-1.513671875q0-4.296875,4.638671875-4.296875q0.78125,0,1.8310546875,0.2197265625t1.6357421875,0.9033203125q2.685546875-1.123046875,4.9072265625-3.564453125t3.759765625-5.4443359375t2.392578125-6.298828125t0.8544921875-5.9814453125q0-3.22265625-0.9521484375-6.5673828125t-2.7587890625-6.201171875t-4.443359375-4.8095703125t-6.0546875-2.44140625q-0.87890625-0.09765625-1.9287109375-0.146484375l-2.099609375-0.09765625t-2.05078125-0.29296875t-1.7333984375-0.78125q0.390625,8.10546875,1.0009765625,16.162109375t1.6357421875,16.162109375q0.390625,0.390625,0.537109375,1.1474609375t0.244140625,1.611328125t0.09765625,1.6357421875l0,1.318359375q0,0.87890625-0.5859375,1.4404296875t-1.3916015625,0.9033203125t-1.708984375,0.439453125t-1.5869140625,0.09765625q-2.197265625,0-3.369140625-0.5859375t-1.66015625-1.708984375t-0.634765625-2.5634765625t-0.244140625-3.1494140625q-1.318359375-13.623046875-1.904296875-26.953125t-0.5859375-26.953125q0-1.611328125-0.1220703125-3.1005859375z M65.1630859375,79.00390625q0,6.005859375,0.390625,12.0361328125t0.68359375,12.0361328125q2.197265625-1.318359375,5.76171875-3.1005859375t6.9091796875-3.9306640625t5.7373046875-4.736328125t2.392578125-5.615234375q0-2.392578125-2.83203125-3.6376953125t-6.591796875-1.85546875t-7.3486328125-0.7568359375t-5.1025390625-0.439453125z M107.62744140625,91.2841796875q-0.09765625-1.2939453125,0.2197265625-2.44140625t1.1962890625-1.904296875t2.978515625-0.7568359375q0.48828125,0,1.1962890625,0.09765625t1.416015625,0.3173828125t1.1474609375,0.6103515625t0.439453125,1.07421875q0,1.806640625,0.1220703125,4.7607421875t0.3173828125,6.15234375t0.3662109375,6.25t0.3173828125,4.9560546875q3.80859375-0.1953125,7.666015625-0.1953125t7.6171875-0.1953125l6.73828125-0.1953125l0-4.833984375q0-8.10546875-0.3173828125-16.2353515625t-1.0986328125-16.2353515625q0-0.5859375,0.48828125-0.9521484375t1.1474609375-0.5615234375t1.3671875-0.244140625t1.0986328125-0.048828125q1.123046875,0,2.4169921875,0.341796875t1.4892578125,1.46484375l0.29296875,2.099609375q1.220703125,8.7890625,1.66015625,17.3828125t0.634765625,17.1875q0.5859375,0.09765625,1.2451171875,0.3173828125t1.3427734375,0.4150390625q0.48828125,0.1953125,1.3916015625,0.5859375t0.9033203125,1.220703125q0,0.78125-0.68359375,1.220703125t-1.5380859375,0.6591796875t-1.66015625,0.2685546875t-1.0009765625,0.048828125q0.09765625,3.61328125,0.09765625,7.2021484375l0,7.2021484375l0,15.771484375l0,8.7890625q0,0.5859375-0.5615234375,1.0498046875t-1.3427734375,0.7568359375t-1.6357421875,0.390625t-1.5380859375,0.09765625t-1.611328125-0.09765625t-1.66015625-0.390625t-1.2939453125-0.732421875t-0.5615234375-1.07421875l0-2.099609375q0.1953125-9.27734375,0.439453125-18.3837890625t0.48828125-18.2861328125q-5.322265625,0.1953125-10.8154296875,0.244140625t-10.9130859375,0.244140625q0.5859375,6.884765625,1.3427734375,13.7451171875t1.5869140625,13.7451171875q0,0.5859375-0.5615234375,1.0498046875t-1.318359375,0.7568359375t-1.611328125,0.390625t-1.5380859375,0.09765625q-1.416015625,0-3.1005859375-0.48828125t-1.8798828125-1.806640625q-0.5859375-5.17578125-1.0986328125-11.42578125t-0.9033203125-12.7685546875t-0.6103515625-12.7685546875t-0.2197265625-11.328125q0-1.220703125-0.09765625-2.5146484375z M163.421875,115.478515625q0-2.880859375,0.3173828125-6.982421875t1.171875-8.544921875t2.294921875-8.837890625t3.6865234375-7.763671875t5.37109375-5.322265625q2.587890625-1.611328125,5.95703125-1.611328125q0.68359375,0,1.416015625,0.09765625q8.49609375,0.78125,13.0615234375,3.8818359375t6.6650390625,7.861328125t2.44140625,10.83984375t0.341796875,12.8173828125q0,5.419921875-1.0009765625,11.7919921875t-3.5400390625,11.8896484375t-7.0068359375,9.2041015625t-11.3525390625,3.6865234375q-4.19921875,0-7.3486328125-1.5380859375t-5.3466796875-4.1015625t-3.61328125-5.95703125t-2.1484375-7.03125t-1.0498046875-7.3486328125t-0.3173828125-7.03125z M173.333984375,113.28125q0,2.099609375,0.048828125,5.1513671875t0.4150390625,6.4208984375t0.9521484375,6.7138671875t1.7333984375,6.0791015625t2.9052734375,4.4921875t4.248046875,1.85546875l0.244140625,0q2.24609375,0,4.00390625-1.708984375q1.85546875-1.806640625,3.2958984375-4.345703125t2.490234375-5.3466796875t1.8798828125-4.8095703125l-0.1953125,0.439453125q1.416015625-4.4921875,1.904296875-9.2041015625t0.48828125-9.3017578125q0-2.197265625-0.29296875-5.2978515625t-0.9521484375-6.4697265625t-1.708984375-6.6650390625t-2.6611328125-5.7373046875t-3.759765625-3.7109375q-1.5625-0.927734375-3.466796875-0.9765625q-0.732421875,0-1.46484375,0.146484375q-2.490234375,0.48828125-4.248046875,2.44140625t-2.8564453125,4.8095703125t-1.6845703125,6.25t-0.9033203125,6.8359375t-0.3662109375,6.591796875t-0.048828125,5.3466796875z M195.35546875,128.3203125l0-0.09765625l0,0.09765625z M216.23779296875,140.72265625q0-1.708984375,1.171875-2.1728515625t2.5390625-0.4638671875q2.392578125,0,4.052734375,2.1484375t3.1494140625,4.7119140625t2.9541015625,4.7119140625t3.466796875,2.1484375q1.513671875,0,2.7587890625-0.7568359375t2.1484375-1.904296875t1.3916015625-2.587890625t0.48828125-2.8564453125q0-3.7109375-1.4892578125-7.666015625t-3.80859375-8.154296875t-4.9072265625-8.59375t-4.8828125-8.935546875t-3.80859375-9.2529296875t-1.513671875-9.4970703125q0-7.177734375,4.296875-11.1328125t11.328125-3.955078125q2.392578125,0,4.833984375,0.68359375t4.4921875,2.05078125t3.3447265625,3.369140625t1.2939453125,4.6875q0,0.87890625-1.2939453125,1.1474609375t-1.8798828125,0.2685546875q-0.87890625,0-1.904296875-0.2197265625t-1.318359375-1.1962890625t-0.830078125-2.24609375t-1.3427734375-2.3681640625t-1.904296875-1.904296875t-2.4169921875-0.8056640625q-2.197265625,0-3.7353515625,0.9033203125t-2.490234375,2.4169921875t-1.416015625,3.3935546875t-0.4638671875,3.8818359375q0,4.6875,1.611328125,9.4482421875t4.00390625,9.47265625t5.2001953125,9.3017578125t5.2001953125,8.935546875t4.00390625,8.49609375t1.611328125,7.861328125q0,3.3203125-1.5625,5.615234375t-3.955078125,3.7353515625t-5.2978515625,2.099609375t-5.6884765625,0.6591796875q-2.978515625,0-6.103515625-1.1962890625t-5.615234375-3.2958984375t-4.1015625-4.9072265625t-1.611328125-6.0791015625z M260.1669921875,140.72265625q0-1.708984375,1.171875-2.1728515625t2.5390625-0.4638671875q2.392578125,0,4.052734375,2.1484375t3.1494140625,4.7119140625t2.9541015625,4.7119140625t3.466796875,2.1484375q1.513671875,0,2.7587890625-0.7568359375t2.1484375-1.904296875t1.3916015625-2.587890625t0.48828125-2.8564453125q0-3.7109375-1.4892578125-7.666015625t-3.80859375-8.154296875t-4.9072265625-8.59375t-4.8828125-8.935546875t-3.80859375-9.2529296875t-1.513671875-9.4970703125q0-7.177734375,4.296875-11.1328125t11.328125-3.955078125q2.392578125,0,4.833984375,0.68359375t4.4921875,2.05078125t3.3447265625,3.369140625t1.2939453125,4.6875q0,0.87890625-1.2939453125,1.1474609375t-1.8798828125,0.2685546875q-0.87890625,0-1.904296875-0.2197265625t-1.318359375-1.1962890625t-0.830078125-2.24609375t-1.3427734375-2.3681640625t-1.904296875-1.904296875t-2.4169921875-0.8056640625q-2.197265625,0-3.7353515625,0.9033203125t-2.490234375,2.4169921875t-1.416015625,3.3935546875t-0.4638671875,3.8818359375q0,4.6875,1.611328125,9.4482421875t4.00390625,9.47265625t5.2001953125,9.3017578125t5.2001953125,8.935546875t4.00390625,8.49609375t1.611328125,7.861328125q0,3.3203125-1.5625,5.615234375t-3.955078125,3.7353515625t-5.2978515625,2.099609375t-5.6884765625,0.6591796875q-2.978515625,0-6.103515625-1.1962890625t-5.615234375-3.2958984375t-4.1015625-4.9072265625t-1.611328125-6.0791015625z M304.09619140625,134.423828125q0-10.595703125,0.9521484375-21.2158203125t3.9794921875-20.9228515625q0.87890625-3.076171875,2.294921875-6.0791015625t3.466796875-5.3466796875t4.8828125-3.80859375t6.73828125-1.46484375l1.025390625,0.09765625q4.19921875,0.5859375,6.201171875,3.3935546875t2.001953125,7.0068359375q0,1.123046875-0.2685546875,2.8076171875t-0.8544921875,3.2470703125t-1.5869140625,2.6611328125t-2.5146484375,1.0986328125q-0.68359375-0.09765625-1.2451171875-0.244140625t-1.0498046875-0.634765625q0.78125-1.708984375,1.3916015625-3.564453125t0.6103515625-4.248046875q0-0.87890625-0.146484375-2.24609375t-0.5615234375-2.7099609375t-1.0986328125-2.34375t-1.904296875-1.0009765625q-3.076171875,0-5.17578125,3.4423828125t-3.515625,8.7890625t-2.099609375,11.81640625t-1.0498046875,12.5t-0.4150390625,10.888671875t-0.048828125,6.8603515625q0,2.34375-0.048828125,5.17578125l0,0.634765625q0.048828125,2.490234375,0.341796875,4.736328125q0.390625,2.5390625,1.513671875,4.39453125t3.515625,2.1484375q0.732421875,0.09765625,1.416015625,0.09765625q2.83203125,0,5.126953125-1.611328125q2.83203125-2.001953125,5.029296875-5.2001953125t3.90625-7.03125t3.1494140625-7.2509765625t2.8076171875-5.6640625t2.83203125-2.24609375q0.48828125,0,1.46484375,0.1953125t0.9765625,0.927734375q0,0.1953125-0.09765625,0.537109375t-0.244140625,0.537109375q-1.318359375,5.17578125-3.3447265625,10.7421875t-5.17578125,10.1318359375t-7.71484375,7.4462890625t-10.9619140625,2.880859375q-4.58984375,0-7.4462890625-1.7333984375t-4.39453125-4.638671875t-2.099609375-6.5673828125t-0.5615234375-7.421875z"/><path fill="#" d=""/></svg>
